<?xml version="1.0" standalone="no"?>
<!DOCTYPE svg PUBLIC "-//W3C//DTD SVG 20010904//EN"
 "http://www.w3.org/TR/2001/REC-SVG-20010904/DTD/svg10.dtd">
<svg version="1.0" xmlns="http://www.w3.org/2000/svg"
 width="260.000000pt" height="260.000000pt" viewBox="0 0 260.000000 260.000000"
 preserveAspectRatio="xMidYMid meet">
<metadata>
Created by potrace 1.11, written by Peter Selinger 2001-2013
</metadata>
<g transform="translate(0.000000,260.000000) scale(0.100000,-0.100000)"
fill="#000000" stroke="none">
<path d="M1045 2318 c-4 -11 -315 -1832 -315 -1844 0 -2 42 -4 94 -4 l94 0 11
68 c6 37 19 119 29 182 l18 115 166 3 165 2 21 -137 c12 -76 25 -159 28 -186
l7 -47 93 0 c83 0 94 2 94 18 0 9 -68 426 -150 925 -83 499 -150 910 -150 912
0 3 -45 5 -100 5 -71 0 -102 -4 -105 -12z m155 -799 c27 -174 50 -325 50 -337
0 -21 -4 -22 -110 -22 -60 0 -110 3 -110 6 0 8 99 625 106 664 9 43 4 66 64
-311z"/>
<path d="M1815 2268 c-6 -30 -245 -1803 -245 -1823 0 -11 11 -15 40 -15 36 0
39 2 45 32 7 40 245 1807 245 1819 0 5 -18 9 -40 9 -33 0 -40 -4 -45 -22z"/>
<path d="M351 1444 l-291 -225 0 -158 0 -157 293 -228 292 -227 3 132 c1 73 1
138 -2 144 -2 7 -104 83 -225 169 -122 87 -221 162 -221 166 0 5 101 82 225
171 l225 163 0 138 c0 76 -2 138 -4 138 -2 0 -134 -102 -295 -226z"/>
<path d="M1950 1532 l0 -140 230 -164 c126 -89 230 -165 230 -168 0 -3 -104
-79 -230 -170 l-229 -165 0 -138 c-1 -79 3 -137 8 -135 5 2 140 104 300 228
l291 225 -1 155 0 155 -291 225 c-160 124 -294 227 -299 228 -5 2 -9 -59 -9
-136z"/>
</g>
</svg>
